<?xml version="1.0" encoding="UTF-8"?><svg id="Ebene_1" xmlns="http://www.w3.org/2000/svg" viewBox="0 0 275 23.69"><defs><style>.cls-1{fill:#1d1d1b;}</style></defs><g><path class="cls-1" d="m190.38.52h3.26c1.6,0,2.41,1.07,2.41,2.27,0,1.29-.89,2.39-2.55,2.39h-2.33v3.32h-.79V.52Zm3.07,3.92c1.11,0,1.77-.62,1.77-1.61,0-.93-.58-1.56-1.71-1.56h-2.34v3.17h2.28Z"/><path class="cls-1" d="m197.26,6.97c0-1.11.79-1.53,1.77-1.66l1.33-.19c.47-.06.88-.18.88-.76,0-.64-.46-1.01-1.38-1.01s-1.55.36-1.66,1.11h-.8c.17-1.16,1.06-1.74,2.47-1.74s2.14.57,2.14,1.79v4.01h-.74v-1.2c-.35.81-1.13,1.32-2.17,1.32s-1.85-.54-1.85-1.65Zm1.99.97c1.06,0,1.98-.73,1.98-1.95v-.56c-.22.14-.49.23-1.03.31l-.92.13c-.49.07-1.25.23-1.25,1.07,0,.71.56,1,1.22,1Z"/><path class="cls-1" d="m204.02,2.81h.75v1.23c.27-.76.98-1.34,2.06-1.34,1.38,0,2.51.9,2.51,2.9s-1.14,2.91-2.58,2.91c-1.11,0-1.69-.56-1.98-1.12v3.31h-.76V2.81Zm2.67,4.99c1.07,0,1.86-.71,1.86-2.21s-.77-2.17-1.86-2.17-1.9.63-1.9,2.18.85,2.2,1.9,2.2Z"/><path class="cls-1" d="m210.74,5.7c0-1.76,1-3,2.67-3s2.46,1.22,2.46,3v.16h-4.37c.06,1.37.75,2.07,1.9,2.07.83,0,1.33-.36,1.62-1.06h.8c-.36,1.15-1.2,1.75-2.43,1.75-1.6,0-2.66-1.03-2.66-2.93Zm4.34-.5c-.09-1.08-.57-1.81-1.68-1.81s-1.74.72-1.87,1.81h3.54Z"/><path class="cls-1" d="m217.91,7.11v-3.62h-1.12v-.67h1.12v-1.64l.77-.22v1.86h1.37v.67h-1.37v3.51c0,.54.19.82.76.82h.73v.68h-.88c-.88,0-1.39-.44-1.39-1.39Z"/><path class="cls-1" d="m221.23,5.7c0-1.76,1-3,2.67-3s2.46,1.22,2.46,3v.16h-4.37c.06,1.37.75,2.07,1.9,2.07.83,0,1.33-.36,1.62-1.06h.8c-.36,1.15-1.2,1.75-2.43,1.75-1.6,0-2.66-1.03-2.66-2.93Zm4.34-.5c-.09-1.08-.57-1.81-1.68-1.81s-1.74.72-1.87,1.81h3.54Z"/><path class="cls-1" d="m228.07,2.81h.75v1.14c.26-.76.82-1.21,1.72-1.21h.37v.74h-.33c-1.27,0-1.74.9-1.74,2.17v2.85h-.76V2.81Z"/><path class="cls-1" d="m232.27.51h.9v1.05h-.9V.51Zm.07,2.3h.78v5.69h-.78V2.81Z"/><path class="cls-1" d="m234.8,5.7c0-1.76,1-3,2.67-3s2.46,1.22,2.46,3v.16h-4.37c.06,1.37.75,2.07,1.9,2.07.83,0,1.33-.36,1.62-1.06h.8c-.36,1.15-1.2,1.75-2.43,1.75-1.6,0-2.66-1.03-2.66-2.93Zm4.34-.5c-.09-1.08-.57-1.81-1.68-1.81s-1.74.72-1.87,1.81h3.54Z"/><path class="cls-1" d="m241.33,4.1h3.27v.75h-3.27v-.75Z"/><path class="cls-1" d="m249.41,6.67v-3.85h.76v3.75c0,.93.55,1.39,1.31,1.39,1.08,0,1.79-.9,1.79-2.2v-2.94h.78v5.69h-.75v-1.19c-.34.8-1,1.31-2,1.31-1.19,0-1.89-.74-1.89-1.96Z"/><path class="cls-1" d="m256.1,2.81h.75v1.2c.33-.76,1.01-1.31,2.09-1.31,1.24,0,1.92.73,1.92,1.95v3.85h-.78v-3.73c0-.93-.56-1.39-1.34-1.39-1.04,0-1.87.78-1.87,2.14v2.97h-.76V2.81Z"/><path class="cls-1" d="m262.53,5.66c0-1.61.83-2.96,2.56-2.96,1.05,0,1.67.5,1.98,1.16V.4h.78v8.1h-.76v-1.21c-.27.72-.86,1.33-2.02,1.33-1.73,0-2.54-1.37-2.54-2.96Zm2.64,2.25c1.28,0,1.9-.99,1.9-2.29s-.63-2.22-1.89-2.22-1.87.99-1.87,2.25.56,2.27,1.86,2.27Z"/><path class="cls-1" d="m190.38,13.52h3.41c1.38,0,2.04.93,2.04,1.87,0,.76-.41,1.54-1.28,1.85,1.12.27,1.63,1.15,1.63,2.01,0,1.14-.88,2.26-2.53,2.26h-3.27v-7.98Zm2.99,3.43c1.09,0,1.64-.71,1.64-1.42,0-.66-.48-1.25-1.44-1.25h-2.41v2.68h2.2Zm.25,3.8c1.17,0,1.73-.79,1.73-1.58s-.58-1.53-1.69-1.53h-2.5v3.11h2.45Z"/><path class="cls-1" d="m198.02,13.4h.76v8.1h-.76v-8.1Z"/><path class="cls-1" d="m200.79,19.67v-3.85h.76v3.75c0,.93.55,1.39,1.31,1.39,1.08,0,1.79-.9,1.79-2.2v-2.94h.78v5.69h-.75v-1.19c-.34.8-1,1.31-2,1.31-1.19,0-1.89-.74-1.89-1.96Z"/><path class="cls-1" d="m207.14,18.7c0-1.76,1-3,2.67-3s2.46,1.22,2.46,3v.16h-4.37c.06,1.37.75,2.07,1.9,2.07.83,0,1.33-.36,1.62-1.06h.8c-.36,1.15-1.2,1.75-2.43,1.75-1.6,0-2.66-1.03-2.66-2.93Zm4.34-.5c-.09-1.08-.57-1.81-1.68-1.81s-1.74.72-1.87,1.81h3.54Z"/><path class="cls-1" d="m213.99,15.81h.75v1.06c.29-.72.92-1.17,1.77-1.17.8,0,1.46.41,1.63,1.24.31-.81,1.07-1.24,1.93-1.24,1.03,0,1.79.62,1.79,1.77v4.04h-.78v-3.8c0-.9-.49-1.32-1.17-1.32-.85,0-1.6.64-1.6,1.87v3.25h-.77v-3.8c0-.9-.5-1.32-1.19-1.32-.84,0-1.6.64-1.6,1.87v3.25h-.76v-5.69Z"/><path class="cls-1" d="m223.54,18.7c0-1.76,1-3,2.67-3s2.46,1.22,2.46,3v.16h-4.37c.06,1.37.75,2.07,1.9,2.07.83,0,1.33-.36,1.62-1.06h.8c-.37,1.15-1.2,1.75-2.43,1.75-1.6,0-2.66-1.03-2.66-2.93Zm4.34-.5c-.09-1.08-.57-1.81-1.68-1.81s-1.74.72-1.87,1.81h3.54Z"/><path class="cls-1" d="m230.39,15.81h.75v1.23c.27-.76.98-1.34,2.06-1.34,1.38,0,2.51.9,2.51,2.9s-1.14,2.91-2.58,2.91c-1.11,0-1.69-.56-1.98-1.12v3.31h-.76v-7.88Zm2.67,4.99c1.07,0,1.86-.71,1.86-2.21s-.78-2.17-1.86-2.17-1.9.63-1.9,2.18.86,2.2,1.9,2.2Z"/><path class="cls-1" d="m237.06,19.97c0-1.11.79-1.53,1.77-1.66l1.33-.19c.47-.06.88-.18.88-.76,0-.64-.46-1.01-1.38-1.01s-1.55.36-1.66,1.11h-.8c.17-1.16,1.06-1.74,2.47-1.74s2.14.57,2.14,1.79v4.01h-.74v-1.2c-.35.81-1.13,1.32-2.17,1.32s-1.85-.54-1.85-1.65Zm1.99.97c1.06,0,1.98-.73,1.98-1.95v-.56c-.22.14-.49.23-1.03.31l-.92.13c-.49.07-1.25.23-1.25,1.07,0,.71.56,1,1.22,1Z"/><path class="cls-1" d="m243.82,15.81h.75v1.14c.26-.76.82-1.21,1.72-1.21h.36v.74h-.33c-1.26,0-1.74.9-1.74,2.17v2.85h-.76v-5.69Z"/><path class="cls-1" d="m247.67,19.97c0-1.11.79-1.53,1.77-1.66l1.33-.19c.47-.06.88-.18.88-.76,0-.64-.46-1.01-1.38-1.01s-1.55.36-1.66,1.11h-.8c.17-1.16,1.06-1.74,2.47-1.74s2.14.57,2.14,1.79v4.01h-.74v-1.2c-.35.81-1.13,1.32-2.17,1.32s-1.85-.54-1.85-1.65Zm1.99.97c1.06,0,1.98-.73,1.98-1.95v-.56c-.22.14-.49.23-1.03.31l-.92.13c-.49.07-1.25.23-1.25,1.07,0,.71.56,1,1.22,1Z"/><path class="cls-1" d="m254.09,18.66c0-1.61.83-2.96,2.56-2.96,1.05,0,1.68.5,1.98,1.16v-3.47h.77v8.1h-.76v-1.21c-.27.72-.85,1.33-2.02,1.33-1.73,0-2.54-1.37-2.54-2.96Zm2.64,2.25c1.28,0,1.9-.99,1.9-2.29s-.63-2.22-1.89-2.22-1.87.99-1.87,2.25.56,2.27,1.86,2.27Z"/><path class="cls-1" d="m261.38,13.51h.9v1.05h-.9v-1.05Zm.07,2.3h.78v5.69h-.78v-5.69Z"/><path class="cls-1" d="m263.92,18.7c0-1.76,1-3,2.67-3s2.46,1.22,2.46,3v.16h-4.37c.06,1.37.75,2.07,1.9,2.07.83,0,1.33-.36,1.62-1.06h.8c-.36,1.15-1.2,1.75-2.43,1.75-1.6,0-2.66-1.03-2.66-2.93Zm4.34-.5c-.09-1.08-.57-1.81-1.68-1.81s-1.74.72-1.87,1.81h3.54Z"/><path class="cls-1" d="m270.37,19.77h.79c.14.89.91,1.2,1.74,1.2s1.34-.27,1.34-.92c0-.6-.5-.82-1.22-.97l-.8-.16c-.89-.17-1.74-.5-1.74-1.58s.9-1.63,2.12-1.63c1.33,0,2.14.6,2.26,1.68h-.79c-.08-.72-.67-1.04-1.5-1.04-.89,0-1.31.34-1.31.92,0,.65.54.85,1.21.99l.73.15c.91.18,1.81.43,1.81,1.54,0,1.17-1,1.69-2.15,1.69-1.24,0-2.37-.57-2.49-1.86Z"/></g><g><path class="cls-1" d="m2.4,2.67L0,1.71V.51h9.24v1.32l-2.91.42,3.45,14.4L13.98.51h3.09l4.32,16.17,3.57-14.01-2.94-.96V.51h7.38v1.32l-2.37.42-4.98,18.63-2.7.87-4.74-15.93-4.2,15.06-2.7.87L2.4,2.67Z"/><path class="cls-1" d="m31.44,20.4l2.67-.99V2.22l-2.67-.48V.51h16.11l.33,5.82h-1.08l-3.09-4.32h-5.73v7.95h7.29v1.68h-7.29v8.19h6.69l3.36-4.8h1.11l-.78,6.48h-16.92v-1.11Z"/><path class="cls-1" d="m52.66,19.8l.51-4.68h1.77c-.03.21-.03.42-.03.63,0,2.46,1.89,4.53,4.56,4.53,1.92,0,3.57-.99,3.57-3.18,0-2.34-1.86-3.3-3.15-3.93l-2.49-1.23c-1.83-.9-4.59-2.31-4.59-6,0-4.11,3.39-5.94,7.05-5.94,2.25,0,4.65.75,6.45,2.01l-1.38,3.81h-1.68c.03-.24.06-.45.06-.66,0-2.22-1.86-3.39-3.78-3.39-1.71,0-3.24.96-3.24,3,0,2.25,2.04,3.27,3.63,4.02l2.4,1.17c1.5.69,4.41,2.1,4.41,5.91,0,4.17-3.54,6.18-7.41,6.18-2.49,0-4.71-.84-6.66-2.25Z"/><path class="cls-1" d="m69.49,20.4l2.67-.99V2.22l-2.67-.48V.51h11.19c4.29,0,6.78,2.76,6.78,6.18s-2.55,6.57-8.22,6.57c-.45,0-.78-.03-1.11-.06v-1.35c3.54,0,5.19-2.43,5.19-5.01s-1.68-4.83-4.41-4.83h-2.88v17.82l3.96.45v1.23h-10.5v-1.11Z"/><path class="cls-1" d="m89.62,20.4l2.64-.99V2.22l-2.64-.48V.51h9.18v1.11l-2.67.99v17.22l2.67.45v1.23h-9.18v-1.11Z"/><path class="cls-1" d="m110.38,19.8l.51-4.68h1.77c-.03.21-.03.42-.03.63,0,2.46,1.89,4.53,4.56,4.53,1.92,0,3.57-.99,3.57-3.18,0-2.34-1.86-3.3-3.15-3.93l-2.49-1.23c-1.83-.9-4.59-2.31-4.59-6,0-4.11,3.39-5.94,7.05-5.94,2.25,0,4.65.75,6.45,2.01l-1.38,3.81h-1.68c.03-.24.06-.45.06-.66,0-2.22-1.86-3.39-3.78-3.39-1.71,0-3.24.96-3.24,3,0,2.25,2.04,3.27,3.63,4.02l2.4,1.17c1.5.69,4.41,2.1,4.41,5.91,0,4.17-3.54,6.18-7.41,6.18-2.49,0-4.71-.84-6.66-2.25Z"/><path class="cls-1" d="m127.36,20.4l2.64-.99V2.22l-2.64-.48V.51h9.18v1.11l-2.67.99v17.22l2.67.45v1.23h-9.18v-1.11Z"/><path class="cls-1" d="m144.18,5.04v14.79l2.94.45v1.23h-7.62v-1.11l2.67-.99V2.22l-2.67-.48V.51h6.18l11.31,15.12V2.22l-2.97-.48V.51h7.68v1.11l-2.67.99v18.48l-2.25.63-12.6-16.68Z"/><path class="cls-1" d="m164.1,19.8l.51-4.68h1.77c-.03.21-.03.42-.03.63,0,2.46,1.89,4.53,4.56,4.53,1.92,0,3.57-.99,3.57-3.18,0-2.34-1.86-3.3-3.15-3.93l-2.49-1.23c-1.83-.9-4.59-2.31-4.59-6,0-4.11,3.39-5.94,7.05-5.94,2.25,0,4.65.75,6.45,2.01l-1.38,3.81h-1.68c.03-.24.06-.45.06-.66,0-2.22-1.86-3.39-3.78-3.39-1.71,0-3.24.96-3.24,3,0,2.25,2.04,3.27,3.63,4.02l2.4,1.17c1.5.69,4.41,2.1,4.41,5.91,0,4.17-3.54,6.18-7.41,6.18-2.49,0-4.71-.84-6.66-2.25Z"/></g></svg>