<?xml version="1.0" encoding="UTF-8"?><svg id="Ebene_1" xmlns="http://www.w3.org/2000/svg" viewBox="0 0 178.17 22.05"><defs><style>.cls-1{fill:#1d1d1b;}</style></defs><path class="cls-1" d="m2.4,2.67L0,1.71V.51h9.24v1.32l-2.91.42,3.45,14.4L13.98.51h3.09l4.32,16.17,3.57-14.01-2.94-.96V.51h7.38v1.32l-2.37.42-4.98,18.63-2.7.87-4.74-15.93-4.2,15.06-2.7.87L2.4,2.67Z"/><path class="cls-1" d="m31.44,20.4l2.67-.99V2.22l-2.67-.48V.51h16.11l.33,5.82h-1.08l-3.09-4.32h-5.73v7.95h7.29v1.68h-7.29v8.19h6.69l3.36-4.8h1.11l-.78,6.48h-16.92v-1.11Z"/><path class="cls-1" d="m52.66,19.8l.51-4.68h1.77c-.03.21-.03.42-.03.63,0,2.46,1.89,4.53,4.56,4.53,1.92,0,3.57-.99,3.57-3.18,0-2.34-1.86-3.3-3.15-3.93l-2.49-1.23c-1.83-.9-4.59-2.31-4.59-6,0-4.11,3.39-5.94,7.05-5.94,2.25,0,4.65.75,6.45,2.01l-1.38,3.81h-1.68c.03-.24.06-.45.06-.66,0-2.22-1.86-3.39-3.78-3.39-1.71,0-3.24.96-3.24,3,0,2.25,2.04,3.27,3.63,4.02l2.4,1.17c1.5.69,4.41,2.1,4.41,5.91,0,4.17-3.54,6.18-7.41,6.18-2.49,0-4.71-.84-6.66-2.25Z"/><path class="cls-1" d="m69.49,20.4l2.67-.99V2.22l-2.67-.48V.51h11.19c4.29,0,6.78,2.76,6.78,6.18s-2.55,6.57-8.22,6.57c-.45,0-.78-.03-1.11-.06v-1.35c3.54,0,5.19-2.43,5.19-5.01s-1.68-4.83-4.41-4.83h-2.88v17.82l3.96.45v1.23h-10.5v-1.11Z"/><path class="cls-1" d="m89.62,20.4l2.64-.99V2.22l-2.64-.48V.51h9.18v1.11l-2.67.99v17.22l2.67.45v1.23h-9.18v-1.11Z"/><path class="cls-1" d="m110.38,19.8l.51-4.68h1.77c-.03.21-.03.42-.03.63,0,2.46,1.89,4.53,4.56,4.53,1.92,0,3.57-.99,3.57-3.18,0-2.34-1.86-3.3-3.15-3.93l-2.49-1.23c-1.83-.9-4.59-2.31-4.59-6,0-4.11,3.39-5.94,7.05-5.94,2.25,0,4.65.75,6.45,2.01l-1.38,3.81h-1.68c.03-.24.06-.45.06-.66,0-2.22-1.86-3.39-3.78-3.39-1.71,0-3.24.96-3.24,3,0,2.25,2.04,3.27,3.63,4.02l2.4,1.17c1.5.69,4.41,2.1,4.41,5.91,0,4.17-3.54,6.18-7.41,6.18-2.49,0-4.71-.84-6.66-2.25Z"/><path class="cls-1" d="m127.36,20.4l2.64-.99V2.22l-2.64-.48V.51h9.18v1.11l-2.67.99v17.22l2.67.45v1.23h-9.18v-1.11Z"/><path class="cls-1" d="m144.18,5.04v14.79l2.94.45v1.23h-7.62v-1.11l2.67-.99V2.22l-2.67-.48V.51h6.18l11.31,15.12V2.22l-2.97-.48V.51h7.68v1.11l-2.67.99v18.48l-2.25.63-12.6-16.68Z"/><path class="cls-1" d="m164.1,19.8l.51-4.68h1.77c-.03.21-.03.42-.03.63,0,2.46,1.89,4.53,4.56,4.53,1.92,0,3.57-.99,3.57-3.18,0-2.34-1.86-3.3-3.15-3.93l-2.49-1.23c-1.83-.9-4.59-2.31-4.59-6,0-4.11,3.39-5.94,7.05-5.94,2.25,0,4.65.75,6.45,2.01l-1.38,3.81h-1.68c.03-.24.06-.45.06-.66,0-2.22-1.86-3.39-3.78-3.39-1.71,0-3.24.96-3.24,3,0,2.25,2.04,3.27,3.63,4.02l2.4,1.17c1.5.69,4.41,2.1,4.41,5.91,0,4.17-3.54,6.18-7.41,6.18-2.49,0-4.71-.84-6.66-2.25Z"/></svg>